<?xml version="1.0" standalone="no"?><!-- Generator: Gravit.io --><svg xmlns="http://www.w3.org/2000/svg" xmlns:xlink="http://www.w3.org/1999/xlink" style="isolation:isolate" viewBox="92.896 125 516.062 494.3" width="516.062" height="494.3"><g id="Group"><path d=" M 348.71 125 Q 391.609 125.178 424.034 135.829 Q 495.508 158.21 540.028 207.544 Q 581.973 251.031 600.192 318.244 Q 609.912 350.397 608.855 393.327 Q 596.979 514.532 523.905 574.539 Q 494.061 601.97 454.116 619.3 L 443.286 592.106 Q 487.002 572.531 517.407 539.644 Q 540.586 515.415 556.152 483.572 Q 580.691 440.007 579.495 370.706 Q 568.827 269.952 509.466 217.892 Q 469.665 178.277 407.188 161.339 Q 378.406 153.06 340.046 154.36 Q 234.705 165.494 181.938 229.202 Q 159.989 252.977 145.359 284.071 Q 122.52 325.728 122.737 390.44 Q 132.004 492.835 190.842 545.66 Q 219.21 574.086 258.465 591.625 Q 254.862 607.033 248.117 619.3 Q 196.379 596.917 161.242 557.934 Q 137.136 531.983 120.331 498.733 Q 93.74 450.722 92.896 376.963 Q 103.201 255.871 173.996 195.27 Q 233.981 132.763 348.71 125 Z " fill="rgb(33,84,42)"/><path d=" M 341.49 168.799 Q 412.858 168.665 456.281 196.474 Q 487.342 213.785 510.188 239.31 Q 530.758 261.816 544.601 291.05 Q 566.368 331.853 565.056 395.734 Q 554.347 489.227 498.877 537.959 Q 473.016 562.635 438.233 578.389 L 428.847 554.564 Q 461.643 539.712 485.16 515.579 Q 505.03 495.741 518.37 469.374 Q 540.121 432.887 539.547 374.075 Q 530.813 287.271 478.662 243.882 Q 433.531 197.084 344.378 194.308 Q 257.85 202.356 214.185 253.268 Q 166.234 297.967 162.686 387.07 Q 170.246 477.696 224.052 522.076 Q 244.997 541.561 272.904 554.083 L 264 577.908 Q 221.485 559.056 192.526 526.649 Q 171.443 503.693 157.391 473.705 Q 136.775 433.917 137.176 373.113 Q 147.323 274.725 206.244 225.111 Q 253.986 177.074 341.49 168.799 Z " fill="rgb(63,166,82)"/><path d=" M 345.341 208.747 Q 435.375 212.327 477.94 263.375 Q 523.683 305.952 525.108 392.846 Q 516.193 471.047 469.036 511.006 Q 449.6 529.112 423.793 540.847 Q 417.333 529.259 413.927 514.616 Q 440.602 502.066 459.169 481.406 Q 496.064 445.864 497.192 374.557 Q 490.204 309.831 451.709 276.611 Q 416.492 238.188 344.378 236.663 Q 276.338 243.706 242.582 285.034 Q 208.032 319.31 205.04 385.145 Q 210.049 452.333 248.117 486.46 Q 265.216 503.534 288.306 514.616 L 278.439 540.366 Q 246.813 526.269 224.774 502.584 Q 179.728 460.513 177.125 376 Q 185.415 293.324 235.603 252.546 Q 274.426 214.6 345.341 208.747 Z " fill="rgb(63,166,82)"/><path d=" M 345.822 251.102 Q 417.964 253.802 450.506 296.104 Q 482.028 328.114 482.753 390.921 Q 476.264 447.483 443.046 477.315 Q 428.505 491.893 408.392 500.899 L 399.006 476.593 Q 416.514 467.148 429.328 453.009 Q 455.56 427.259 455.8 375.519 Q 450.295 330.487 423.312 306.933 Q 397.742 279.078 345.341 278.055 Q 296.124 283.466 271.942 313.912 Q 246.929 338.956 245.951 388.033 Q 250.896 436.754 280.365 460.951 Q 289.912 470.174 302.745 476.112 Q 302.958 481.137 300.339 483.331 L 293.36 500.899 Q 270.01 489.595 253.652 471.299 Q 221.896 440.244 219.48 379.851 Q 224.66 317.648 261.112 286.718 Q 290.834 256.277 345.822 251.102 Z " fill="rgb(33,84,42)"/></g></svg>