<?xml version="1.0" standalone="no"?><!-- Generator: Gravit.io --><svg xmlns="http://www.w3.org/2000/svg" xmlns:xlink="http://www.w3.org/1999/xlink" style="isolation:isolate" viewBox="29.039 125 672.5 801.111" width="672.5" height="801.111"><g id="Group"><g id="g3879"><g id="Group"><path d=" M 348.71 125 Q 391.609 125.178 424.034 135.829 Q 495.508 158.21 540.028 207.544 Q 581.973 251.031 600.192 318.244 Q 609.912 350.397 608.855 393.327 Q 596.979 514.532 523.905 574.539 Q 494.061 601.97 454.116 619.3 L 443.286 592.106 Q 487.002 572.531 517.407 539.644 Q 540.586 515.415 556.152 483.572 Q 580.691 440.007 579.495 370.706 Q 568.827 269.952 509.466 217.892 Q 469.665 178.277 407.188 161.339 Q 378.406 153.06 340.046 154.36 Q 234.705 165.494 181.938 229.202 Q 159.989 252.977 145.359 284.071 Q 122.52 325.728 122.737 390.44 Q 132.004 492.835 190.842 545.66 Q 219.21 574.086 258.465 591.625 Q 254.862 607.033 248.117 619.3 Q 196.379 596.917 161.242 557.934 Q 137.136 531.983 120.331 498.733 Q 93.74 450.722 92.896 376.963 Q 103.201 255.871 173.996 195.27 Q 233.981 132.763 348.71 125 Z " fill="rgb(33,84,42)"/><path d=" M 341.49 168.799 Q 412.858 168.665 456.281 196.474 Q 487.342 213.785 510.188 239.31 Q 530.758 261.816 544.601 291.05 Q 566.368 331.853 565.056 395.734 Q 554.347 489.227 498.877 537.959 Q 473.016 562.635 438.233 578.389 L 428.847 554.564 Q 461.643 539.712 485.16 515.579 Q 505.03 495.741 518.37 469.374 Q 540.121 432.887 539.547 374.075 Q 530.813 287.271 478.662 243.882 Q 433.531 197.084 344.378 194.308 Q 257.85 202.356 214.185 253.268 Q 166.234 297.967 162.686 387.07 Q 170.246 477.696 224.052 522.076 Q 244.997 541.561 272.904 554.083 L 264 577.908 Q 221.485 559.056 192.526 526.649 Q 171.443 503.693 157.391 473.705 Q 136.775 433.917 137.176 373.113 Q 147.323 274.725 206.244 225.111 Q 253.986 177.074 341.49 168.799 Z " fill="rgb(63,166,82)"/><path d=" M 345.341 208.747 Q 435.375 212.327 477.94 263.375 Q 523.683 305.952 525.108 392.846 Q 516.193 471.047 469.036 511.006 Q 449.6 529.112 423.793 540.847 Q 417.333 529.259 413.927 514.616 Q 440.602 502.066 459.169 481.406 Q 496.064 445.864 497.192 374.557 Q 490.204 309.831 451.709 276.611 Q 416.492 238.188 344.378 236.663 Q 276.338 243.706 242.582 285.034 Q 208.032 319.31 205.04 385.145 Q 210.049 452.333 248.117 486.46 Q 265.216 503.534 288.306 514.616 L 278.439 540.366 Q 246.813 526.269 224.774 502.584 Q 179.728 460.513 177.125 376 Q 185.415 293.324 235.603 252.546 Q 274.426 214.6 345.341 208.747 Z " fill="rgb(63,166,82)"/><path d=" M 345.822 251.102 Q 417.964 253.802 450.506 296.104 Q 482.028 328.114 482.753 390.921 Q 476.264 447.483 443.046 477.315 Q 428.505 491.893 408.392 500.899 L 399.006 476.593 Q 416.514 467.148 429.328 453.009 Q 455.56 427.259 455.8 375.519 Q 450.295 330.487 423.312 306.933 Q 397.742 279.078 345.341 278.055 Q 296.124 283.466 271.942 313.912 Q 246.929 338.956 245.951 388.033 Q 250.896 436.754 280.365 460.951 Q 289.912 470.174 302.745 476.112 Q 302.958 481.137 300.339 483.331 L 293.36 500.899 Q 270.01 489.595 253.652 471.299 Q 221.896 440.244 219.48 379.851 Q 224.66 317.648 261.112 286.718 Q 290.834 256.277 345.822 251.102 Z " fill="rgb(33,84,42)"/></g><path d=" M 50.599 744.417 L 50.599 744.417 L 50.599 744.417 Q 50.599 753.471 53.514 758.107 L 53.514 758.107 L 53.514 758.107 Q 56.43 762.743 63.01 762.743 L 63.01 762.743 L 63.01 762.743 Q 69.537 762.743 72.399 758.134 L 72.399 758.134 L 72.399 758.134 Q 75.262 753.526 75.262 744.417 L 75.262 744.417 L 75.262 744.417 Q 75.262 735.364 72.373 730.837 L 72.373 730.837 L 72.373 730.837 Q 69.484 726.31 62.903 726.31 L 62.903 726.31 L 62.903 726.31 Q 56.376 726.31 53.488 730.81 L 53.488 730.81 L 53.488 730.81 Q 50.599 735.309 50.599 744.417 Z  M 91.953 744.417 L 91.953 744.417 L 91.953 744.417 Q 91.953 759.307 84.249 767.706 L 84.249 767.706 L 84.249 767.706 Q 76.546 776.105 62.796 776.105 L 62.796 776.105 L 62.796 776.105 Q 54.183 776.105 47.603 772.26 L 47.603 772.26 L 47.603 772.26 Q 41.022 768.415 37.491 761.216 L 37.491 761.216 L 37.491 761.216 Q 33.96 754.016 33.96 744.417 L 33.96 744.417 L 33.96 744.417 Q 33.96 729.474 41.611 721.183 L 41.611 721.183 L 41.611 721.183 Q 49.261 712.893 63.117 712.893 L 63.117 712.893 L 63.117 712.893 Q 71.731 712.893 78.311 716.711 L 78.311 716.711 L 78.311 716.711 Q 84.891 720.529 88.422 727.674 L 88.422 727.674 L 88.422 727.674 Q 91.953 734.818 91.953 744.417 Z  M 138.283 776.105 L 138.283 776.105 L 138.283 776.105 Q 127.744 776.105 121.752 768.306 L 121.752 768.306 L 120.896 768.306 L 120.896 768.306 Q 121.752 775.941 121.752 777.141 L 121.752 777.141 L 121.752 801.848 L 105.435 801.848 L 105.435 714.039 L 118.703 714.039 L 121.003 721.947 L 121.752 721.947 L 121.752 721.947 Q 127.477 712.893 138.711 712.893 L 138.711 712.893 L 138.711 712.893 Q 149.304 712.893 155.296 721.238 L 155.296 721.238 L 155.296 721.238 Q 161.288 729.583 161.288 744.417 L 161.288 744.417 L 161.288 744.417 Q 161.288 754.18 158.479 761.379 L 158.479 761.379 L 158.479 761.379 Q 155.671 768.579 150.481 772.342 L 150.481 772.342 L 150.481 772.342 Q 145.292 776.105 138.283 776.105 Z  M 133.468 726.201 L 133.468 726.201 L 133.468 726.201 Q 127.423 726.201 124.641 729.992 L 124.641 729.992 L 124.641 729.992 Q 121.859 733.782 121.752 742.509 L 121.752 742.509 L 121.752 744.308 L 121.752 744.308 Q 121.752 754.126 124.614 758.38 L 124.614 758.38 L 124.614 758.38 Q 127.477 762.634 133.682 762.634 L 133.682 762.634 L 133.682 762.634 Q 144.65 762.634 144.65 744.199 L 144.65 744.199 L 144.65 744.199 Q 144.65 735.2 141.948 730.701 L 141.948 730.701 L 141.948 730.701 Q 139.246 726.201 133.468 726.201 Z  M 199.54 724.729 L 199.54 724.729 L 199.54 724.729 Q 194.35 724.729 191.408 728.083 L 191.408 728.083 L 191.408 728.083 Q 188.465 731.437 188.037 737.6 L 188.037 737.6 L 210.935 737.6 L 210.935 737.6 Q 210.828 731.437 207.778 728.083 L 207.778 728.083 L 207.778 728.083 Q 204.729 724.729 199.54 724.729 Z  M 201.84 776.105 L 201.84 776.105 L 201.84 776.105 Q 187.395 776.105 179.264 767.979 L 179.264 767.979 L 179.264 767.979 Q 171.132 759.852 171.132 744.963 L 171.132 744.963 L 171.132 744.963 Q 171.132 729.637 178.648 721.265 L 178.648 721.265 L 178.648 721.265 Q 186.165 712.893 199.433 712.893 L 199.433 712.893 L 199.433 712.893 Q 212.112 712.893 219.174 720.256 L 219.174 720.256 L 219.174 720.256 Q 226.236 727.619 226.236 740.6 L 226.236 740.6 L 226.236 748.672 L 187.663 748.672 L 187.663 748.672 Q 187.93 755.762 191.782 759.743 L 191.782 759.743 L 191.782 759.743 Q 195.634 763.725 202.589 763.725 L 202.589 763.725 L 202.589 763.725 Q 207.992 763.725 212.807 762.579 L 212.807 762.579 L 212.807 762.579 Q 217.622 761.434 222.865 758.925 L 222.865 758.925 L 222.865 771.796 L 222.865 771.796 Q 218.585 773.978 213.717 775.042 L 213.717 775.042 L 213.717 775.042 Q 208.848 776.105 201.84 776.105 Z  M 294.714 735.255 L 294.714 775.014 L 278.397 775.014 L 278.397 739.4 L 278.397 739.4 Q 278.397 732.8 276.097 729.501 L 276.097 729.501 L 276.097 729.501 Q 273.796 726.201 268.767 726.201 L 268.767 726.201 L 268.767 726.201 Q 261.919 726.201 258.87 730.864 L 258.87 730.864 L 258.87 730.864 Q 255.821 735.527 255.821 746.326 L 255.821 746.326 L 255.821 775.014 L 239.503 775.014 L 239.503 714.039 L 251.969 714.039 L 254.162 721.838 L 255.072 721.838 L 255.072 721.838 Q 257.8 717.42 262.588 715.157 L 262.588 715.157 L 262.588 715.157 Q 267.376 712.893 273.475 712.893 L 273.475 712.893 L 273.475 712.893 Q 283.907 712.893 289.311 718.647 L 289.311 718.647 L 289.311 718.647 Q 294.714 724.401 294.714 735.255 L 294.714 735.255 Z " fill-rule="evenodd" fill="rgb(63,166,82)"/><path d=" M 398.167 756.702 L 398.167 756.702 L 398.167 756.702 Q 398.167 765.047 392.068 769.573 L 392.068 769.573 L 392.068 769.573 Q 385.969 774.1 374.949 774.1 L 374.949 774.1 L 374.949 774.1 Q 363.286 774.1 356.759 770.337 L 356.759 770.337 L 356.759 761.938 L 356.759 761.938 Q 360.985 764.119 365.827 765.374 L 365.827 765.374 L 365.827 765.374 Q 370.669 766.628 375.163 766.628 L 375.163 766.628 L 375.163 766.628 Q 382.117 766.628 385.862 764.365 L 385.862 764.365 L 385.862 764.365 Q 389.607 762.101 389.607 757.465 L 389.607 757.465 L 389.607 757.465 Q 389.607 753.975 386.638 751.493 L 386.638 751.493 L 386.638 751.493 Q 383.669 749.012 375.056 745.63 L 375.056 745.63 L 375.056 745.63 Q 366.87 742.522 363.42 740.204 L 363.42 740.204 L 363.42 740.204 Q 359.969 737.886 358.284 734.941 L 358.284 734.941 L 358.284 734.941 Q 356.598 731.995 356.598 727.905 L 356.598 727.905 L 356.598 727.905 Q 356.598 720.597 362.43 716.37 L 362.43 716.37 L 362.43 716.37 Q 368.261 712.143 378.426 712.143 L 378.426 712.143 L 378.426 712.143 Q 387.895 712.143 396.937 716.07 L 396.937 716.07 L 393.78 723.433 L 393.78 723.433 Q 384.953 719.724 377.784 719.724 L 377.784 719.724 L 377.784 719.724 Q 371.471 719.724 368.261 721.742 L 368.261 721.742 L 368.261 721.742 Q 365.051 723.76 365.051 727.305 L 365.051 727.305 L 365.051 727.305 Q 365.051 729.705 366.255 731.395 L 366.255 731.395 L 366.255 731.395 Q 367.459 733.086 370.134 734.613 L 370.134 734.613 L 370.134 734.613 Q 372.809 736.14 380.405 739.031 L 380.405 739.031 L 380.405 739.031 Q 390.838 742.903 394.502 746.83 L 394.502 746.83 L 394.502 746.83 Q 398.167 750.757 398.167 756.702 Z  M 463.222 743.067 L 463.222 743.067 L 463.222 743.067 Q 463.222 757.684 455.999 765.892 L 455.999 765.892 L 455.999 765.892 Q 448.777 774.1 436.044 774.1 L 436.044 774.1 L 436.044 774.1 Q 428.18 774.1 422.081 770.337 L 422.081 770.337 L 422.081 770.337 Q 415.982 766.574 412.665 759.538 L 412.665 759.538 L 412.665 759.538 Q 409.348 752.502 409.348 743.067 L 409.348 743.067 L 409.348 743.067 Q 409.348 728.45 416.517 720.297 L 416.517 720.297 L 416.517 720.297 Q 423.686 712.143 436.419 712.143 L 436.419 712.143 L 436.419 712.143 Q 448.724 712.143 455.973 720.488 L 455.973 720.488 L 455.973 720.488 Q 463.222 728.832 463.222 743.067 Z  M 418.55 743.067 L 418.55 743.067 L 418.55 743.067 Q 418.55 754.52 423.044 760.52 L 423.044 760.52 L 423.044 760.52 Q 427.538 766.519 436.258 766.519 L 436.258 766.519 L 436.258 766.519 Q 444.979 766.519 449.499 760.547 L 449.499 760.547 L 449.499 760.547 Q 454.02 754.575 454.02 743.067 L 454.02 743.067 L 454.02 743.067 Q 454.02 731.668 449.499 725.751 L 449.499 725.751 L 449.499 725.751 Q 444.979 719.833 436.151 719.833 L 436.151 719.833 L 436.151 719.833 Q 427.431 719.833 422.991 725.669 L 422.991 725.669 L 422.991 725.669 Q 418.55 731.505 418.55 743.067 Z  M 478.148 713.234 L 487.136 713.234 L 487.136 752.011 L 487.136 752.011 Q 487.136 759.32 490.399 762.919 L 490.399 762.919 L 490.399 762.919 Q 493.663 766.519 500.618 766.519 L 500.618 766.519 L 500.618 766.519 Q 509.819 766.519 514.073 761.392 L 514.073 761.392 L 514.073 761.392 Q 518.326 756.266 518.326 744.649 L 518.326 744.649 L 518.326 713.234 L 527.207 713.234 L 527.207 773.009 L 519.877 773.009 L 518.593 764.992 L 518.112 764.992 L 518.112 764.992 Q 515.383 769.41 510.542 771.755 L 510.542 771.755 L 510.542 771.755 Q 505.7 774.1 499.494 774.1 L 499.494 774.1 L 499.494 774.1 Q 488.794 774.1 483.471 768.919 L 483.471 768.919 L 483.471 768.919 Q 478.148 763.738 478.148 752.339 L 478.148 752.339 L 478.148 713.234 Z  M 572.788 712.143 L 572.788 712.143 L 572.788 712.143 Q 576.693 712.143 579.796 712.797 L 579.796 712.797 L 578.566 721.197 L 578.566 721.197 Q 574.928 720.378 572.146 720.378 L 572.146 720.378 L 572.146 720.378 Q 565.03 720.378 559.975 726.269 L 559.975 726.269 L 559.975 726.269 Q 554.919 732.159 554.919 740.94 L 554.919 740.94 L 554.919 773.009 L 546.038 773.009 L 546.038 713.234 L 553.368 713.234 L 554.384 724.305 L 554.812 724.305 L 554.812 724.305 Q 558.075 718.47 562.676 715.306 L 562.676 715.306 L 562.676 715.306 Q 567.277 712.143 572.788 712.143 Z  M 614.196 774.1 L 614.196 774.1 L 614.196 774.1 Q 601.463 774.1 594.481 766.11 L 594.481 766.11 L 594.481 766.11 Q 587.5 758.12 587.5 743.503 L 587.5 743.503 L 587.5 743.503 Q 587.5 728.505 594.588 720.324 L 594.588 720.324 L 594.588 720.324 Q 601.677 712.143 614.784 712.143 L 614.784 712.143 L 614.784 712.143 Q 619.011 712.143 623.237 713.07 L 623.237 713.07 L 623.237 713.07 Q 627.464 713.997 629.871 715.252 L 629.871 715.252 L 627.143 722.942 L 627.143 722.942 Q 624.2 721.742 620.723 720.951 L 620.723 720.951 L 620.723 720.951 Q 617.245 720.16 614.57 720.16 L 614.57 720.16 L 614.57 720.16 Q 596.702 720.16 596.702 743.394 L 596.702 743.394 L 596.702 743.394 Q 596.702 754.411 601.062 760.302 L 601.062 760.302 L 601.062 760.302 Q 605.422 766.192 613.982 766.192 L 613.982 766.192 L 613.982 766.192 Q 621.311 766.192 629.015 762.974 L 629.015 762.974 L 629.015 770.991 L 629.015 770.991 Q 623.13 774.1 614.196 774.1 Z  M 667.695 774.1 L 667.695 774.1 L 667.695 774.1 Q 654.694 774.1 647.178 766.028 L 647.178 766.028 L 647.178 766.028 Q 639.661 757.956 639.661 743.612 L 639.661 743.612 L 639.661 743.612 Q 639.661 729.159 646.643 720.651 L 646.643 720.651 L 646.643 720.651 Q 653.625 712.143 665.394 712.143 L 665.394 712.143 L 665.394 712.143 Q 676.415 712.143 682.835 719.533 L 682.835 719.533 L 682.835 719.533 Q 689.255 726.923 689.255 739.031 L 689.255 739.031 L 689.255 744.758 L 648.863 744.758 L 648.863 744.758 Q 649.131 755.284 654.079 760.738 L 654.079 760.738 L 654.079 760.738 Q 659.028 766.192 668.016 766.192 L 668.016 766.192 L 668.016 766.192 Q 677.485 766.192 686.74 762.156 L 686.74 762.156 L 686.74 770.228 L 686.74 770.228 Q 682.032 772.3 677.833 773.2 L 677.833 773.2 L 677.833 773.2 Q 673.633 774.1 667.695 774.1 Z  M 665.287 719.724 L 665.287 719.724 L 665.287 719.724 Q 658.225 719.724 654.026 724.414 L 654.026 724.414 L 654.026 724.414 Q 649.826 729.105 649.077 737.395 L 649.077 737.395 L 679.732 737.395 L 679.732 737.395 Q 679.732 728.832 675.987 724.278 L 675.987 724.278 L 675.987 724.278 Q 672.242 719.724 665.287 719.724 Z " fill-rule="evenodd" fill="rgb(0,0,0)"/><path d=" M 280.928 832.521 L 280.928 832.521 L 280.928 832.521 Q 284.833 832.521 287.936 833.176 L 287.936 833.176 L 286.706 841.575 L 286.706 841.575 Q 283.068 840.757 280.286 840.757 L 280.286 840.757 L 280.286 840.757 Q 273.171 840.757 268.115 846.647 L 268.115 846.647 L 268.115 846.647 Q 263.059 852.537 263.059 861.318 L 263.059 861.318 L 263.059 893.388 L 254.178 893.388 L 254.178 833.612 L 261.508 833.612 L 262.524 844.684 L 262.952 844.684 L 262.952 844.684 Q 266.216 838.848 270.817 835.684 L 270.817 835.684 L 270.817 835.684 Q 275.417 832.521 280.928 832.521 Z  M 341.542 893.388 L 334.962 893.388 L 333.196 884.879 L 332.768 884.879 L 332.768 884.879 Q 328.381 890.497 324.021 892.488 L 324.021 892.488 L 324.021 892.488 Q 319.661 894.478 313.134 894.478 L 313.134 894.478 L 313.134 894.478 Q 304.414 894.478 299.465 889.897 L 299.465 889.897 L 299.465 889.897 Q 294.517 885.316 294.517 876.862 L 294.517 876.862 L 294.517 876.862 Q 294.517 858.755 322.925 857.882 L 322.925 857.882 L 332.875 857.555 L 332.875 853.846 L 332.875 853.846 Q 332.875 846.811 329.906 843.456 L 329.906 843.456 L 329.906 843.456 Q 326.937 840.102 320.41 840.102 L 320.41 840.102 L 320.41 840.102 Q 313.081 840.102 303.825 844.684 L 303.825 844.684 L 301.097 837.757 L 301.097 837.757 Q 305.43 835.357 310.593 833.994 L 310.593 833.994 L 310.593 833.994 Q 315.756 832.63 320.945 832.63 L 320.945 832.63 L 320.945 832.63 Q 331.431 832.63 336.487 837.375 L 336.487 837.375 L 336.487 837.375 Q 341.542 842.12 341.542 852.592 L 341.542 852.592 L 341.542 893.388 Z  M 314.9 887.006 L 314.9 887.006 L 314.9 887.006 Q 323.192 887.006 327.927 882.371 L 327.927 882.371 L 327.927 882.371 Q 332.661 877.735 332.661 869.39 L 332.661 869.39 L 332.661 863.991 L 323.781 864.372 L 323.781 864.372 Q 313.188 864.754 308.507 867.727 L 308.507 867.727 L 308.507 867.727 Q 303.825 870.699 303.825 876.971 L 303.825 876.971 L 303.825 876.971 Q 303.825 881.88 306.741 884.443 L 306.741 884.443 L 306.741 884.443 Q 309.657 887.006 314.9 887.006 Z  M 400.926 893.388 L 399.749 885.37 L 399.268 885.37 L 399.268 885.37 Q 393.115 894.478 380.864 894.478 L 380.864 894.478 L 380.864 894.478 Q 369.362 894.478 362.968 886.461 L 362.968 886.461 L 362.968 886.461 Q 356.575 878.444 356.575 863.663 L 356.575 863.663 L 356.575 863.663 Q 356.575 848.883 362.995 840.702 L 362.995 840.702 L 362.995 840.702 Q 369.415 832.521 380.864 832.521 L 380.864 832.521 L 380.864 832.521 Q 392.794 832.521 399.161 841.357 L 399.161 841.357 L 399.856 841.357 L 399.482 837.048 L 399.268 832.848 L 399.268 808.524 L 408.148 808.524 L 408.148 893.388 L 400.926 893.388 Z  M 381.987 886.897 L 381.987 886.897 L 381.987 886.897 Q 391.082 886.897 395.175 881.852 L 395.175 881.852 L 395.175 881.852 Q 399.268 876.807 399.268 865.572 L 399.268 865.572 L 399.268 863.663 L 399.268 863.663 Q 399.268 850.956 395.121 845.529 L 395.121 845.529 L 395.121 845.529 Q 390.975 840.102 381.88 840.102 L 381.88 840.102 L 381.88 840.102 Q 374.07 840.102 369.923 846.292 L 369.923 846.292 L 369.923 846.292 Q 365.777 852.483 365.777 863.772 L 365.777 863.772 L 365.777 863.772 Q 365.777 875.226 369.897 881.062 L 369.897 881.062 L 369.897 881.062 Q 374.016 886.897 381.987 886.897 Z  M 435.861 833.612 L 435.861 893.388 L 426.98 893.388 L 426.98 833.612 L 435.861 833.612 Z  M 426.231 817.414 L 426.231 817.414 L 426.231 817.414 Q 426.231 814.305 427.729 812.86 L 427.729 812.86 L 427.729 812.86 Q 429.227 811.414 431.474 811.414 L 431.474 811.414 L 431.474 811.414 Q 433.614 811.414 435.165 812.887 L 435.165 812.887 L 435.165 812.887 Q 436.717 814.359 436.717 817.414 L 436.717 817.414 L 436.717 817.414 Q 436.717 820.468 435.165 821.968 L 435.165 821.968 L 435.165 821.968 Q 433.614 823.468 431.474 823.468 L 431.474 823.468 L 431.474 823.468 Q 429.227 823.468 427.729 821.968 L 427.729 821.968 L 427.729 821.968 Q 426.231 820.468 426.231 817.414 Z  M 505.302 863.445 L 505.302 863.445 L 505.302 863.445 Q 505.302 878.062 498.08 886.27 L 498.08 886.27 L 498.08 886.27 Q 490.858 894.478 478.125 894.478 L 478.125 894.478 L 478.125 894.478 Q 470.261 894.478 464.162 890.715 L 464.162 890.715 L 464.162 890.715 Q 458.063 886.952 454.746 879.916 L 454.746 879.916 L 454.746 879.916 Q 451.429 872.881 451.429 863.445 L 451.429 863.445 L 451.429 863.445 Q 451.429 848.829 458.598 840.675 L 458.598 840.675 L 458.598 840.675 Q 465.767 832.521 478.499 832.521 L 478.499 832.521 L 478.499 832.521 Q 490.804 832.521 498.053 840.866 L 498.053 840.866 L 498.053 840.866 Q 505.302 849.21 505.302 863.445 Z  M 460.631 863.445 L 460.631 863.445 L 460.631 863.445 Q 460.631 874.899 465.125 880.898 L 465.125 880.898 L 465.125 880.898 Q 469.619 886.897 478.339 886.897 L 478.339 886.897 L 478.339 886.897 Q 487.059 886.897 491.58 880.925 L 491.58 880.925 L 491.58 880.925 Q 496.101 874.953 496.101 863.445 L 496.101 863.445 L 496.101 863.445 Q 496.101 852.046 491.58 846.129 L 491.58 846.129 L 491.58 846.129 Q 487.059 840.211 478.232 840.211 L 478.232 840.211 L 478.232 840.211 Q 469.512 840.211 465.071 846.047 L 465.071 846.047 L 465.071 846.047 Q 460.631 851.883 460.631 863.445 Z " fill-rule="evenodd" fill="rgb(0,0,0)"/></g><g id="utopian-io"><g id="Layer_7"><linearGradient id="_lgradient_2" x1="-0.9891483312760324%" y1="5.016286816035037%" x2="96.17678357296226%" y2="80.87875410121492%"><stop offset="0%" stop-opacity="1" style="stop-color:rgb(41,171,226)"/><stop offset="100%" stop-opacity="1" style="stop-color:rgb(147,39,143)"/></linearGradient><path d=" M 365.344 359.751 C 346.997 347.105 312.498 331.874 270 339.846 C 292.047 340.145 325.3 354.532 332.091 361.322 C 327.884 363.997 324.249 367.698 321.587 372.307 C 319.613 375.735 318.341 379.371 317.717 383.058 C 310.862 375.397 304.616 367.685 301.331 357.531 C 295.826 376.319 308.576 404.106 330.624 415.454 C 343.998 422.336 359.683 421.297 369.694 413.065 C 372.576 410.689 375.095 407.767 377.069 404.34 C 379.731 399.73 381.12 394.718 381.341 389.745 C 381.847 378.189 376.848 367.672 365.344 359.751 Z  M 363.202 396.328 C 358.813 403.924 349.14 406.573 341.505 402.288 C 341.44 402.249 341.388 402.223 341.323 402.184 C 341.258 402.145 341.206 402.119 341.141 402.08 C 333.623 397.614 331.065 387.901 335.454 380.306 C 339.882 372.645 349.672 370.022 357.333 374.45 C 364.993 378.877 367.629 388.667 363.202 396.328 Z " fill="url(#_lgradient_2)"/><path d=" M 344 397.569 C 338.899 394.624 337.148 388.091 340.093 382.99 C 343.039 377.889 349.572 376.138 354.673 379.084 C 359.774 382.029 361.525 388.562 358.579 393.663 C 355.634 398.764 349.101 400.515 344 397.569 Z " fill="rgb(0,113,188)"/></g></g></g></svg>